HIERARCHY
ROOT Hips
{
	OFFSET 0.000000 100.481300 0.000000
	CHANNELS 6 Xposition Yposition Zposition Xrotation Yrotation Zrotation
	JOINT Spine
	{
		OFFSET -0.279200 12.230698 -2.892100
		CHANNELS 3 Xrotation Yrotation Zrotation
		JOINT Spine1
		{
			OFFSET -0.325700 14.269203 -3.374200
			CHANNELS 3 Xrotation Yrotation Zrotation
			JOINT Spine2
			{
				OFFSET -0.372300 16.307602 -0.352600
				CHANNELS 3 Xrotation Yrotation Zrotation
				JOINT Neck
				{
					OFFSET -0.418800 17.814194 8.416900
					CHANNELS 3 Xrotation Yrotation Zrotation
					JOINT Head
					{
						OFFSET 0.000000 7.031097 3.806800
						CHANNELS 3 Xrotation Yrotation Zrotation
						JOINT HeadTop_End
						{
							OFFSET 0.000000 24.646606 12.978600
							CHANNELS 3 Xrotation Yrotation Zrotation
							End Site
							{
								OFFSET 0.000000 27.854965 0.000000
							}
						}
					}
				}
				JOINT LeftShoulder
				{
					OFFSET 16.952999 14.495407 -7.737500
					CHANNELS 3 Xrotation Yrotation Zrotation
					JOINT LeftArm
					{
						OFFSET 9.308998 -2.777710 0.208600
						CHANNELS 3 Xrotation Yrotation Zrotation
						JOINT LeftForeArm
						{
							OFFSET 29.972298 0.000000 0.000000
							CHANNELS 3 Xrotation Yrotation Zrotation
							JOINT LeftHand
							{
								OFFSET 26.026505 0.000000 0.000000
								CHANNELS 3 Xrotation Yrotation Zrotation
								JOINT LeftHandThumb1
								{
									OFFSET 12.240501 -7.147949 9.207150
									CHANNELS 3 Xrotation Yrotation Zrotation
									JOINT LeftHandThumb2
									{
										OFFSET 4.138618 -2.389435 2.389433
										CHANNELS 3 Xrotation Yrotation Zrotation
										JOINT LeftHandThumb3
										{
											OFFSET 2.726913 -1.574387 1.574386
											CHANNELS 3 Xrotation Yrotation Zrotation
											JOINT LeftHandThumb4
											{
												OFFSET 3.941010 -2.275345 2.275342
												CHANNELS 3 Xrotation Yrotation Zrotation
												End Site
												{
													OFFSET -0.005798 5.087799 0.009903
												}
											}
										}
									}
								}
								JOINT LeftHandIndex1
								{
									OFFSET 24.424698 -1.985611 5.953459
									CHANNELS 3 Xrotation Yrotation Zrotation
									JOINT LeftHandIndex2
									{
										OFFSET 6.426697 0.000000 0.000000
										CHANNELS 3 Xrotation Yrotation Zrotation
										JOINT LeftHandIndex3
										{
											OFFSET 5.337898 0.000000 0.000000
											CHANNELS 3 Xrotation Yrotation Zrotation
											JOINT LeftHandIndex4
											{
												OFFSET 4.409401 0.000000 0.000000
												CHANNELS 3 Xrotation Yrotation Zrotation
												End Site
												{
													OFFSET 0.000000 4.409363 0.014373
												}
											}
										}
									}
								}
								JOINT LeftHandMiddle1
								{
									OFFSET 23.810104 0.000000 0.000000
									CHANNELS 3 Xrotation Yrotation Zrotation
									JOINT LeftHandMiddle2
									{
										OFFSET 7.176498 0.000000 0.000000
										CHANNELS 3 Xrotation Yrotation Zrotation
										JOINT LeftHandMiddle3
										{
											OFFSET 6.774902 0.000000 0.000000
											CHANNELS 3 Xrotation Yrotation Zrotation
											JOINT LeftHandMiddle4
											{
												OFFSET 5.403328 0.000000 0.000000
												CHANNELS 3 Xrotation Yrotation Zrotation
												End Site
												{
													OFFSET -0.027702 5.403244 0.017414
												}
											}
										}
									}
								}
								JOINT LeftHandRing1
								{
									OFFSET 22.908401 -0.839279 -6.020567
									CHANNELS 3 Xrotation Yrotation Zrotation
									JOINT LeftHandRing2
									{
										OFFSET 6.337502 0.000000 0.000000
										CHANNELS 3 Xrotation Yrotation Zrotation
										JOINT LeftHandRing3
										{
											OFFSET 5.779297 0.000000 0.000000
											CHANNELS 3 Xrotation Yrotation Zrotation
											JOINT LeftHandRing4
											{
												OFFSET 4.965698 0.000000 0.000000
												CHANNELS 3 Xrotation Yrotation Zrotation
												End Site
												{
													OFFSET 0.000000 4.965668 0.016186
												}
											}
										}
									}
								}
								JOINT LeftHandPinky1
								{
									OFFSET 20.037003 -1.530319 -10.950146
									CHANNELS 3 Xrotation Yrotation Zrotation
									JOINT LeftHandPinky2
									{
										OFFSET 5.254700 0.000000 0.000000
										CHANNELS 3 Xrotation Yrotation Zrotation
										JOINT LeftHandPinky3
										{
											OFFSET 4.810204 0.000000 0.000000
											CHANNELS 3 Xrotation Yrotation Zrotation
											JOINT LeftHandPinky4
											{
												OFFSET 3.647202 0.000000 0.000000
												CHANNELS 3 Xrotation Yrotation Zrotation
												End Site
												{
													OFFSET 0.000000 3.647186 0.011889
												}
											}
										}
									}
								}
							}
						}
					}
				}
				JOINT RightShoulder
				{
					OFFSET -15.141001 14.495407 -7.737500
					CHANNELS 3 Xrotation Yrotation Zrotation
					JOINT RightArm
					{
						OFFSET -9.308998 -2.777710 0.208500
						CHANNELS 3 Xrotation Yrotation Zrotation
						JOINT RightForeArm
						{
							OFFSET -29.972300 0.000000 0.000000
							CHANNELS 3 Xrotation Yrotation Zrotation
							JOINT RightHand
							{
								OFFSET -26.026505 0.000000 0.000000
								CHANNELS 3 Xrotation Yrotation Zrotation
								JOINT RightHandThumb1
								{
									OFFSET -12.240601 -7.148026 9.207092
									CHANNELS 3 Xrotation Yrotation Zrotation
									JOINT RightHandThumb2
									{
										OFFSET -4.138618 -2.389435 2.389433
										CHANNELS 3 Xrotation Yrotation Zrotation
										JOINT RightHandThumb3
										{
											OFFSET -2.726974 -1.574417 1.574421
											CHANNELS 3 Xrotation Yrotation Zrotation
											JOINT RightHandThumb4
											{
												OFFSET -3.941010 -2.275345 2.275343
												CHANNELS 3 Xrotation Yrotation Zrotation
												End Site
												{
													OFFSET 0.005814 5.087799 0.009927
												}
											}
										}
									}
								}
								JOINT RightHandIndex1
								{
									OFFSET -24.424698 -1.985657 5.953444
									CHANNELS 3 Xrotation Yrotation Zrotation
									JOINT RightHandIndex2
									{
										OFFSET -6.426697 0.000000 0.000000
										CHANNELS 3 Xrotation Yrotation Zrotation
										JOINT RightHandIndex3
										{
											OFFSET -5.337898 0.000000 0.000000
											CHANNELS 3 Xrotation Yrotation Zrotation
											JOINT RightHandIndex4
											{
												OFFSET -4.409401 0.000000 0.000000
												CHANNELS 3 Xrotation Yrotation Zrotation
												End Site
												{
													OFFSET 0.000000 4.409363 0.014408
												}
											}
										}
									}
								}
								JOINT RightHandMiddle1
								{
									OFFSET -23.810097 0.000000 0.000000
									CHANNELS 3 Xrotation Yrotation Zrotation
									JOINT RightHandMiddle2
									{
										OFFSET -7.176498 0.000000 0.000000
										CHANNELS 3 Xrotation Yrotation Zrotation
										JOINT RightHandMiddle3
										{
											OFFSET -6.774902 0.000000 0.000000
											CHANNELS 3 Xrotation Yrotation Zrotation
											JOINT RightHandMiddle4
											{
												OFFSET -5.403328 0.000000 0.000000
												CHANNELS 3 Xrotation Yrotation Zrotation
												End Site
												{
													OFFSET 0.027702 5.403244 0.017457
												}
											}
										}
									}
								}
								JOINT RightHandRing1
								{
									OFFSET -22.908302 -0.839325 -6.020576
									CHANNELS 3 Xrotation Yrotation Zrotation
									JOINT RightHandRing2
									{
										OFFSET -6.337502 0.000000 0.000000
										CHANNELS 3 Xrotation Yrotation Zrotation
										JOINT RightHandRing3
										{
											OFFSET -5.779297 0.000000 0.000000
											CHANNELS 3 Xrotation Yrotation Zrotation
											JOINT RightHandRing4
											{
												OFFSET -4.965698 0.000000 0.000000
												CHANNELS 3 Xrotation Yrotation Zrotation
												End Site
												{
													OFFSET 0.000000 4.965668 0.016226
												}
											}
										}
									}
								}
								JOINT RightHandPinky1
								{
									OFFSET -20.037003 -1.530334 -10.950259
									CHANNELS 3 Xrotation Yrotation Zrotation
									JOINT RightHandPinky2
									{
										OFFSET -5.254700 0.000000 0.000000
										CHANNELS 3 Xrotation Yrotation Zrotation
										JOINT RightHandPinky3
										{
											OFFSET -4.810204 0.000000 0.000000
											CHANNELS 3 Xrotation Yrotation Zrotation
											JOINT RightHandPinky4
											{
												OFFSET -3.647202 0.000000 0.000000
												CHANNELS 3 Xrotation Yrotation Zrotation
												End Site
												{
													OFFSET 0.000000 3.647186 0.011917
												}
											}
										}
									}
								}
							}
						}
					}
				}
			}
		}
	}
	JOINT LeftUpLeg
	{
		OFFSET 15.427100 -6.655098 0.678600
		CHANNELS 3 Xrotation Yrotation Zrotation
		JOINT LeftLeg
		{
			OFFSET 4.081073 -39.591068 13.024000
			CHANNELS 3 Xrotation Yrotation Zrotation
			JOINT LeftFoot
			{
				OFFSET -4.081074 -37.707932 -15.979700
				CHANNELS 3 Xrotation Yrotation Zrotation
				JOINT LeftToeBase
				{
					OFFSET 5.346399 -15.068900 20.645000
					CHANNELS 3 Xrotation Yrotation Zrotation
					JOINT LeftToe_End
					{
						OFFSET 2.754700 0.931300 11.300900
						CHANNELS 3 Xrotation Yrotation Zrotation
						End Site
						{
							OFFSET 0.000000 11.669021 0.000000
						}
					}
				}
			}
		}
	}
	JOINT RightUpLeg
	{
		OFFSET -15.569500 -6.655098 0.678600
		CHANNELS 3 Xrotation Yrotation Zrotation
		JOINT RightLeg
		{
			OFFSET -4.081825 -39.591045 13.023800
			CHANNELS 3 Xrotation Yrotation Zrotation
			JOINT RightFoot
			{
				OFFSET 4.081824 -37.707954 -15.979600
				CHANNELS 3 Xrotation Yrotation Zrotation
				JOINT RightToeBase
				{
					OFFSET -5.346400 -15.068900 20.645000
					CHANNELS 3 Xrotation Yrotation Zrotation
					JOINT RightToe_End
					{
						OFFSET -2.754700 0.931300 11.300900
						CHANNELS 3 Xrotation Yrotation Zrotation
						End Site
						{
							OFFSET 0.000000 11.669021 0.000000
						}
					}
				}
			}
		}
	}
}
MOTION
Frames: 4
Frame Time: 0.033333
-2.738909 15.782692 -9.597099 82.066512 -4.262500 -1.948721 5.823296 -1.426850 -0.762830 -4.503243 -5.968104 1.130369 -3.976461 -6.207441 0.294963 -32.782026 -1.697447 16.047364 -6.197600 25.652881 -5.094416 -0.000001 -0.000001 0.000000 -32.480927 -38.457148 29.672275 -79.272801 -12.457598 -42.902119 0.000058 -47.465191 0.000049 -117.441346 17.230979 23.795001 4.709272 9.560480 3.112020 19.499879 -1.543433 7.602924 -4.536340 -9.612737 1.471696 0.000001 -0.000000 -0.000001 -0.213467 3.931029 -36.721313 2.942832 5.079296 -60.152486 0.514001 2.401520 -24.157939 0.000001 0.000000 -0.000002 0.409232 5.507984 -52.423362 3.387403 5.308738 -65.060345 0.281980 1.797364 -17.831507 -0.000001 -0.000000 -0.000001 -0.076496 5.734042 -61.039563 4.055576 5.569683 -72.100529 0.582886 2.549433 -25.753034 -0.000002 0.000000 -0.000000 -6.567045 4.534521 -72.376666 3.300076 5.267420 -64.112663 0.175449 1.424432 -14.043082 -0.000002 -0.000003 -0.000004 -20.878768 19.505412 15.432766 -54.217663 48.936280 38.178428 0.000005 110.374580 -0.000001 -42.814464 -8.131167 -56.477741 8.374071 -4.959753 11.081053 21.647378 -18.178478 -18.383154 -0.703040 -49.821715 -32.535207 0.000002 -0.000000 0.000002 -0.918298 1.686413 12.408955 0.748456 -2.533983 32.905864 0.615943 -2.316591 29.775349 -0.000000 0.000000 -0.000001 3.405587 -7.181727 51.620271 6.297072 -4.359488 110.638047 0.248687 -1.503012 18.789401 -0.000001 0.000000 0.000000 -3.348463 -2.597803 56.988793 5.441339 -4.590823 99.704096 1.689734 -3.590966 50.387562 -0.000000 0.000001 -0.000001 -3.997588 -3.296269 64.544666 4.059246 -4.618712 82.615550 2.315876 -4.026972 59.791968 0.000000 -0.000000 -0.000000 -10.230301 33.746018 19.536071 25.934881 0.005291 -5.855656 -13.884784 16.878115 19.482512 4.608417 9.741538 35.573326 0.000001 -0.000000 -0.000003 -39.180366 -40.611786 -50.576864 29.211319 -10.745492 -4.678558 -7.112716 2.917530 23.117971 0.031131 -0.515316 5.979841 -0.000001 -0.000001 -0.000002 
-2.670482 16.029358 -9.688087 81.402270 -4.305361 -1.536274 6.983374 -0.611369 -1.395270 -4.416694 -6.136266 0.686514 -3.887611 -6.373763 -0.158635 -32.872447 -1.980995 16.056202 -8.715444 23.954028 -4.077627 0.000000 0.000001 -0.000000 -29.036999 -41.345112 34.355192 -78.887681 -12.405623 -39.039452 0.000001 -44.575338 0.000005 -121.758599 15.360573 15.613020 4.709263 9.560460 3.112021 19.498471 -1.539808 7.604704 -4.536337 -9.612748 1.472810 -0.000000 -0.000001 0.000000 1.087016 5.697530 -39.201294 2.731059 4.952258 -57.730589 0.429188 2.202905 -22.047434 0.000000 0.000001 -0.000002 -0.635909 4.950586 -55.388210 3.388905 5.309436 -65.076451 0.303415 1.862611 -18.502277 -0.000002 0.000001 0.000004 -0.460518 5.542868 -61.297492 4.085312 5.579165 -72.406562 0.615308 2.615511 -26.472548 -0.000001 0.000001 -0.000001 -7.607746 5.096671 -76.305849 3.432263 5.329293 -65.544114 0.225957 1.612901 -15.948572 -0.000000 -0.000000 0.000000 -19.037028 21.966366 11.842806 -57.079191 41.357823 38.688391 0.000012 110.021035 0.000005 -35.857636 -11.075784 -49.823204 6.793408 28.772667 7.647931 22.049995 -18.470046 -20.049194 -1.635255 -49.529035 -33.666122 -0.000001 0.000002 0.000001 -1.702730 3.593736 15.400994 0.657878 -2.388366 30.797405 0.531624 -2.162711 27.618232 0.000000 -0.000000 -0.000001 4.871748 -8.095733 54.612734 6.268910 -4.369968 110.267954 0.266412 -1.554073 19.453492 -0.000000 -0.000000 -0.000000 -2.897809 -2.925516 57.244546 5.448635 -4.589564 99.795197 1.721953 -3.617345 50.900007 0.000001 -0.000001 0.000000 -2.638914 -4.403735 68.542273 4.170683 -4.631757 83.997352 2.423850 -4.087768 61.317887 0.000000 0.000001 -0.000002 -9.800474 33.586670 20.083288 26.102227 0.861270 -5.647474 -13.464301 16.445371 17.958685 7.204422 9.176561 34.099108 -0.000001 -0.000001 0.000002 -38.761344 -39.977350 -50.481453 29.570717 -11.400016 -5.067769 -7.077276 1.530346 24.029282 0.597658 -0.614960 6.752305 0.000001 -0.000002 -0.000001 
-2.549327 16.577690 -10.113586 80.874631 -4.383074 -0.697393 7.536886 0.880604 -2.550212 -4.516476 -6.266746 0.204130 -3.983232 -6.500570 -0.674581 -32.457175 -2.191680 15.675684 -10.064604 20.996423 -3.061828 0.000004 0.000000 0.000000 -25.701802 -44.354907 38.488362 -77.250293 -11.758247 -34.296740 -0.000004 -44.290515 -0.000013 -123.876149 12.729193 9.949684 4.709265 9.560458 3.112017 19.497079 -1.536213 7.606495 -4.536324 -9.612784 1.473936 -0.000000 -0.000001 0.000001 1.767917 6.501694 -41.151377 2.643319 4.895955 -56.708472 0.397873 2.123997 -21.217711 0.000004 -0.000001 0.000000 -1.617063 4.461262 -57.136937 3.385887 5.308029 -65.044035 0.319780 1.910829 -18.999648 0.000003 0.000000 -0.000001 -0.632162 5.492073 -61.803971 4.069660 5.574200 -72.245575 0.622071 2.629024 -26.620401 0.000001 0.000000 -0.000001 -8.151945 6.207075 -81.518595 3.433535 5.329855 -65.557638 0.236619 1.649759 -16.323187 -0.000000 -0.000001 0.000001 -17.234951 23.664481 9.170465 -59.383741 34.965330 38.600312 0.000040 108.493409 -0.000029 -30.544811 -8.906434 -41.725766 14.157520 49.342055 -8.850750 21.539111 -19.282514 -19.984799 -3.504591 -49.403042 -35.736380 -0.000000 0.000000 0.000003 -2.206940 4.266669 17.624345 0.623377 -2.329522 29.958637 0.499545 -2.100296 26.755772 0.000000 -0.000000 -0.000000 6.111146 -8.788156 56.397046 6.244460 -4.378878 109.947597 0.279920 -1.591821 19.946075 0.000001 -0.000000 -0.000001 -2.648718 -3.148014 57.755240 5.422573 -4.593972 99.469705 1.721479 -3.616973 50.892614 0.000001 0.000002 -0.000002 -1.514069 -5.339682 73.910420 4.167942 -4.631457 83.963317 2.429949 -4.091082 61.403271 -0.000000 -0.000000 0.000004 -10.552851 32.927020 21.754494 26.907595 3.037167 -5.034710 -11.383206 15.168744 14.910404 -5.826584 11.494259 38.009603 -0.000000 0.000000 -0.000002 -38.573637 -38.189886 -50.349013 30.458522 -10.938680 -5.249445 -6.637068 -0.472299 23.977791 1.688427 -0.636304 7.031431 -0.000000 -0.000000 -0.000000 
-2.375797 17.325829 -10.695862 80.786398 -3.971529 0.183706 7.518230 2.459381 -3.728897 -4.720041 -5.840865 -0.306402 -4.188833 -6.067409 -1.181969 -31.753870 -2.288103 15.022345 -9.935513 18.133660 -2.075689 0.000001 -0.000000 0.000000 -24.873112 -45.250618 39.114718 -78.118561 -6.604752 -33.918269 -0.000021 -51.842813 -0.000019 -121.159360 7.269942 8.064573 4.709263 9.560452 3.112019 19.495668 -1.532610 7.608285 -4.536317 -9.612775 1.475057 -0.000000 -0.000002 0.000001 1.574669 6.283432 -40.682195 2.655269 4.903759 -56.848406 0.407632 2.148929 -21.479285 0.000001 0.000001 -0.000002 -2.385365 3.904169 -56.685096 3.362998 5.297375 -64.796167 0.321076 1.914588 -19.038459 0.000001 -0.000000 0.000001 -0.566617 5.539080 -61.946612 4.014244 5.556221 -71.674018 0.603556 2.591790 -26.213822 0.000000 0.000006 0.000000 -8.115586 7.143030 -85.393498 3.377614 5.304199 -64.954423 0.225211 1.610313 -15.922265 0.000000 -0.000001 -0.000000 -15.558749 24.894395 6.983448 -60.124195 28.943808 36.318708 -0.000008 108.144270 0.000008 -26.648695 -4.801892 -31.649813 46.353967 52.358205 -37.517884 20.415736 -21.254181 -19.950907 -4.792278 -49.294684 -37.159921 -0.000001 -0.000000 0.000001 -2.087788 3.948452 17.466074 0.644118 -2.365126 30.465253 0.519542 -2.139395 27.295432 0.000002 0.000000 0.000000 6.840429 -9.294509 56.202393 6.230029 -4.384077 109.758606 0.289415 -1.617715 20.284730 -0.000002 -0.000000 -0.000000 -2.659778 -3.190130 58.166198 5.387561 -4.599670 99.032941 1.708196 -3.606142 50.681653 -0.000000 -0.000002 0.000001 -0.967549 -5.855378 78.167608 4.136185 -4.628015 83.570117 2.408637 -4.079435 61.104232 -0.000000 0.000001 0.000001 -13.337798 32.378341 24.657312 28.441145 6.104199 -4.025953 -8.082995 12.587673 11.310079 -23.090605 12.787183 37.732755 0.000003 -0.000000 -0.000002 -38.926549 -36.095009 -50.545937 31.691945 -9.229430 -5.202599 -6.275875 -2.399883 22.965466 2.812564 -0.583044 6.775283 -0.000001 -0.000003 -0.000000 
